<svg width="86" height="95" viewBox="0 0 86 95" fill="none" xmlns="http://www.w3.org/2000/svg">
<g clip-path="url(#clip0_141_69)">
<path d="M15.9375 13.475H16.9375V12.475V8.5583C16.9375 6.9271 18.2262 5.64163 19.7708 5.64163C21.3155 5.64163 22.6042 6.9271 22.6042 8.5583V12.475V13.475H23.6042H54.2708H55.2708V12.475V8.5583C55.2708 6.92709 56.5595 5.64163 58.1042 5.64163C59.6489 5.64163 60.9375 6.92709 60.9375 8.5583V12.475V13.475H61.9375H65.7708C71.5498 13.475 76.2708 18.2675 76.2708 24.225V59.7823C75.8401 59.017 75.4025 58.1518 74.9452 57.2477C74.7984 56.9575 74.6495 56.6633 74.4983 56.3671C73.8584 55.1142 73.1773 53.8314 72.4679 52.8029C72.1121 52.287 71.7312 51.8082 71.3235 51.4198C71.1051 51.2117 70.8654 51.0164 70.6042 50.8545V43.8083V42.8083H69.6042H8.27084H7.27084V43.8083V79.0583C7.27084 81.7534 9.41466 83.975 12.1042 83.975H44.7233C44.7586 84.0044 44.7931 84.0314 44.826 84.0561C45.0241 84.2044 45.2548 84.3337 45.493 84.4482C45.9703 84.6774 46.5852 84.8978 47.2863 85.1112C48.695 85.5399 50.5832 85.9795 52.7156 86.4171C56.6311 87.2207 61.464 88.0364 65.8616 88.7787C66.26 88.846 66.6549 88.9126 67.0452 88.9786C68.7771 89.2714 70.4088 89.5496 71.8623 89.8083H71.8427H71.7217H71.6002H71.4782H71.3557H71.2327H71.1093H70.9854H70.861H70.7361H70.6107H70.4849H70.3587H70.2319H70.1048H69.9771H69.8491H69.7205H69.5916H69.4621H69.3323H69.202H69.0713H68.9401H68.8086H68.6766H68.5441H68.4113H68.2781H68.1444H68.0103H67.8759H67.741H67.6057H67.4701H67.334H67.1975H67.0607H66.9235H66.7859H66.6479H66.5096H66.3708H66.2317H66.0923H65.9525H65.8123H65.6717H65.5309H65.3896H65.248H65.1061H64.9638H64.8212H64.6782H64.535H64.3913H64.2474H64.1031H63.9585H63.8136H63.6684H63.5229H63.3771H63.2309H63.0845H62.9377H62.7907H62.6433H62.4957H62.3478H62.1996H62.0511H61.9024H61.7533H61.604H61.4544H61.3046H61.1545H61.0041H60.8535H60.7026H60.5515H60.4001H60.2484H60.0966H59.9445H59.7921H59.6395H59.4867H59.3337H59.1804H59.0269H58.8732H58.7193H58.5652H58.4108H58.2563H58.1015H57.9466H57.7914H57.6361H57.4805H57.3248H57.1689H57.0128H56.8565H56.7001H56.5434H56.3866H56.2297H56.0726H55.9153H55.7578H55.6002H55.4425H55.2845H55.1265H54.9683H54.81H54.6515H54.4929H54.3341H54.1753H54.0163H53.8571H53.6979H53.5385H53.3791H53.2195H53.0598H52.9H52.7401H52.5801H52.42H52.2599H52.0996H51.9392H51.7788H51.6183H51.4577H51.297H51.1363H50.9754H50.8146H50.6536H50.4926H50.3316H50.1704H50.0093H49.8481H49.6868H49.5255H49.3642H49.2028H49.0414H48.88H48.7185H48.557H48.3955H48.234H48.0725H47.9109H47.7494H47.5878H47.4262H47.2647H47.1031H46.9416H46.78H46.6185H46.457H46.2955H46.134H45.9725H45.8111H45.6497H45.4883H45.327H45.1657H45.0045H44.8433H44.6821H44.521H44.36H44.199H44.0381H43.8772H43.7164H43.5557H43.395H43.2345H43.074H42.9135H42.7532H42.593H42.4328H42.2727H42.1128H41.9529H41.7931H41.6335H41.4739H41.3145H41.1552H40.996H40.8369H40.6779H40.5191H40.3604H40.2018H40.0433H39.885H39.7269H39.5689H39.411H39.2533H39.0957H38.9383H38.781H38.624H38.467H38.3103H38.1537H37.9973H37.8411H37.685H37.5291H37.3735H37.218H37.0627H36.9076H36.7527H36.598H36.4435H36.2892H36.1351H35.9812H35.8276H35.6742H35.521H35.368H35.2152H35.0627H34.9104H34.7584H34.6065H34.455H34.3037H34.1526H34.0018H33.8512H33.7009H33.5509H33.4011H33.2516H33.1023H32.9534H32.8047H32.6563H32.5081H32.3603H32.2127H32.0655H31.9185H31.7718H31.6255H31.4794H31.3336H31.1882H31.043H30.8982H30.7537H30.6095H30.4657H30.3221H30.1789H30.0361H29.8936H29.7514H29.6095H29.468H29.3269H29.1861H29.0456H28.9055H28.7658H28.6264H28.4874H28.3488H28.2105H28.0726H27.9351H27.798H27.6613H27.5249H27.389H27.2534H27.1182H26.9835H26.8491H26.7151H26.5816H26.4484H26.3157H26.1834H26.0515H25.92H25.789H25.6584H25.5282H25.3985H25.2692H25.1403H25.0119H24.8839H24.7564H24.6293H24.5027H24.3766H24.2509H24.1257H24.0009H23.8766H23.7528H23.6295H23.5067H23.3843H23.2624H23.141H23.0201H22.8997H22.7798H22.6604H22.5415H22.4232H22.3053H22.1879H22.0711H21.9547H21.8389H21.7237H21.6089H21.4947H21.381H21.2679H21.1552H21.0432H20.9317H20.8207H20.7103H20.6004H20.4911H20.3824H20.2742H20.1666H20.0596H19.9531H19.8472H19.7419H19.6372H19.5331H19.4295H19.3266H19.2242H19.1224H19.0213H18.9207H18.8208H18.7214H18.6227H18.5246H18.4271H18.3302H18.2339H18.1383H18.0433H17.949H17.8552H17.7622H17.6697H17.5779H17.4868H17.3963H17.3064H17.2173H17.1287H17.0409H16.9537H16.8672H16.7813H16.6961H16.6116H16.5278H16.4447H16.3623H16.2805H16.1995H16.1191H16.0394H15.9605H15.8822H15.8047H15.7279H15.6517H15.5763H15.5017H15.4277H15.3545H15.282H15.2102H15.1392H15.0689H14.9993H14.9305H14.8625H14.7952H14.7286H14.6628H14.5978H14.5335H14.47H14.4073H14.3453H14.2841H14.2237H14.1641H14.1052H14.0471H13.9899H13.9334H13.8777H13.8228H13.7687H13.7154H13.663H13.6113H13.5605H13.5104H13.4612H13.4128H13.3653H13.3185H13.2726H13.2275H13.1833H13.1399H13.0974H13.0557H13.0148H12.9748H12.9357H12.8974H12.86H12.8234H12.7877H12.7529H12.719H12.6859H12.6537H12.6224H12.592H12.5625H12.5338H12.5061H12.4792H12.4533H12.4282H12.4041H12.3809H12.3586H12.3372H12.3167H12.2971H12.2785H12.2608H12.244H12.2282H12.2133H12.1993H12.1863H12.1742H12.1631H12.1529H12.1437H12.1354H12.1281H12.1218H12.1164H12.112H12.1086H12.1061H12.1047C12.1043 89.8083 12.1042 89.8083 12.1042 90.8083V89.8083C6.32535 89.8083 1.60417 85.0159 1.60417 79.0583V24.225C1.60417 18.2675 6.32536 13.475 12.1042 13.475H15.9375ZM55.2708 20.3083V19.3083H54.2708H23.6042H22.6042V20.3083V24.225C22.6042 25.8562 21.3155 27.1416 19.7708 27.1416C18.2262 27.1416 16.9375 25.8562 16.9375 24.225V20.3083V19.3083H15.9375H12.1042C9.41465 19.3083 7.27084 21.53 7.27084 24.225V35.975V36.975H8.27084H69.6042H70.6042V35.975V24.225C70.6042 21.53 68.4604 19.3083 65.7708 19.3083H61.9375H60.9375V20.3083V24.225C60.9375 25.8562 59.6489 27.1416 58.1042 27.1416C56.5595 27.1416 55.2708 25.8562 55.2708 24.225V20.3083Z" fill="#65746A" stroke="#A6BCAD" stroke-width="2"/>
<path d="M64.7708 70.0617V70.4697L65.0562 70.7612L68.4298 74.2078C68.4298 74.2078 68.4299 74.2079 68.4299 74.2079C69.5464 75.349 69.5463 77.2071 68.4299 78.3483C67.3252 79.477 65.5429 79.477 64.4381 78.3483L59.9416 73.754C59.3434 73.1428 59.0629 72.3237 59.1091 71.5121L59.1123 71.4561L59.1092 71.4001C59.1059 71.3406 59.1042 71.2823 59.1042 71.225V63.3916C59.1042 61.7604 60.3928 60.475 61.9375 60.475C63.4822 60.475 64.7708 61.7604 64.7708 63.3916V70.0617Z" fill="#65746A" stroke="#A6BCAD" stroke-width="2"/>
<path d="M83.9375 71.225C83.9375 83.6717 74.0676 93.725 61.9375 93.725C49.8074 93.725 39.9375 83.6717 39.9375 71.225C39.9375 58.7782 49.8074 48.725 61.9375 48.725C74.0676 48.725 83.9375 58.7782 83.9375 71.225ZM45.5348 71.225C45.5348 80.4484 52.8585 87.9625 61.9375 87.9625C71.0165 87.9625 78.3402 80.4484 78.3402 71.225C78.3402 62.0016 71.0165 54.4874 61.9375 54.4874C52.8585 54.4874 45.5348 62.0016 45.5348 71.225Z" fill="#65746A" stroke="#A6BCAD" stroke-width="2"/>
</g>
<defs>
<clipPath id="clip0_141_69">
<rect width="85" height="94" fill="white" transform="translate(0.3125 0.908325)"/>
</clipPath>
</defs>
</svg>
