<svg width="99" height="81" viewBox="0 0 99 81" fill="none" xmlns="http://www.w3.org/2000/svg">
<rect width="99" height="81" fill="none"/>
<g clip-path="url(#clip0_0_1)">
<rect width="2042" height="5565" transform="translate(-1399 -1048)" fill="white"/>
<rect x="-1398" y="-69" width="2042" height="224" fill="#A6BCAD"/>
<mask id="path-2-inside-1_0_1" fill="white">
<path fill-rule="evenodd" clip-rule="evenodd" d="M83.737 52.8527C82.9517 52.9411 82.2198 53.2939 81.6614 53.8531L75.414 60.1004L72.651 57.3374C71.9976 56.6841 71.1114 56.3171 70.1875 56.3171C69.2635 56.3171 68.3773 56.6841 67.7239 57.3374C67.0706 57.9909 66.7036 58.877 66.7036 59.801C66.7036 60.725 67.0706 61.6111 67.7239 62.2645L72.9505 67.4911C73.6039 68.1443 74.4901 68.5113 75.414 68.5113C76.338 68.5113 77.2241 68.1443 77.8776 67.4911L86.5885 58.7802C87.2418 58.1267 87.6088 57.2406 87.6088 56.3166C87.6088 55.3926 87.2418 54.5065 86.5885 53.8531C86.2188 53.4829 85.7705 53.2009 85.2769 53.0277C84.7832 52.8545 84.257 52.7947 83.737 52.8527Z"/>
</mask>
<path fill-rule="evenodd" clip-rule="evenodd" d="M83.737 52.8527C82.9517 52.9411 82.2198 53.2939 81.6614 53.8531L75.414 60.1004L72.651 57.3374C71.9976 56.6841 71.1114 56.3171 70.1875 56.3171C69.2635 56.3171 68.3773 56.6841 67.7239 57.3374C67.0706 57.9909 66.7036 58.877 66.7036 59.801C66.7036 60.725 67.0706 61.6111 67.7239 62.2645L72.9505 67.4911C73.6039 68.1443 74.4901 68.5113 75.414 68.5113C76.338 68.5113 77.2241 68.1443 77.8776 67.4911L86.5885 58.7802C87.2418 58.1267 87.6088 57.2406 87.6088 56.3166C87.6088 55.3926 87.2418 54.5065 86.5885 53.8531C86.2188 53.4829 85.7705 53.2009 85.2769 53.0277C84.7832 52.8545 84.257 52.7947 83.737 52.8527Z" fill="#65746A" stroke="#A6BCAD" stroke-width="4" mask="url(#path-2-inside-1_0_1)"/>
<mask id="path-3-inside-2_0_1" fill="white">
<path fill-rule="evenodd" clip-rule="evenodd" d="M42.3125 42.3792C41.3884 42.3792 40.5021 42.7462 39.8487 43.3996C39.1952 44.0531 38.8281 44.9394 38.8281 45.8635C38.8281 46.7876 39.1952 47.6739 39.8487 48.3273C40.5021 48.9807 41.3884 49.3479 42.3125 49.3479H52.7656C53.6897 49.3479 54.576 48.9807 55.2295 48.3273C55.8829 47.6739 56.25 46.7876 56.25 45.8635C56.25 44.9394 55.8829 44.0531 55.2295 43.3996C54.576 42.7462 53.6897 42.3792 52.7656 42.3792H42.3125Z"/>
</mask>
<path fill-rule="evenodd" clip-rule="evenodd" d="M42.3125 42.3792C41.3884 42.3792 40.5021 42.7462 39.8487 43.3996C39.1952 44.0531 38.8281 44.9394 38.8281 45.8635C38.8281 46.7876 39.1952 47.6739 39.8487 48.3273C40.5021 48.9807 41.3884 49.3479 42.3125 49.3479H52.7656C53.6897 49.3479 54.576 48.9807 55.2295 48.3273C55.8829 47.6739 56.25 46.7876 56.25 45.8635C56.25 44.9394 55.8829 44.0531 55.2295 43.3996C54.576 42.7462 53.6897 42.3792 52.7656 42.3792H42.3125Z" fill="#65746A" stroke="#A6BCAD" stroke-width="4" mask="url(#path-3-inside-2_0_1)"/>
<mask id="path-4-inside-3_0_1" fill="white">
<path fill-rule="evenodd" clip-rule="evenodd" d="M17.9219 31.926C16.9978 31.9261 16.1116 32.2932 15.4582 32.9466C14.8047 33.6001 14.4376 34.4863 14.4375 35.4104V49.3479C14.4376 50.272 14.8047 51.1581 15.4582 51.8116C16.1116 52.465 16.9978 52.8322 17.9219 52.8323H31.8594C32.7835 52.8322 33.6697 52.465 34.3231 51.8116C34.9765 51.1581 35.3437 50.272 35.3438 49.3479V35.4104C35.3437 34.4863 34.9765 33.6001 34.3231 32.9466C33.6697 32.2932 32.7835 31.9261 31.8594 31.926H17.9219ZM21.4062 38.8948H28.375V45.8635H21.4062V38.8948Z"/>
</mask>
<path fill-rule="evenodd" clip-rule="evenodd" d="M17.9219 31.926C16.9978 31.9261 16.1116 32.2932 15.4582 32.9466C14.8047 33.6001 14.4376 34.4863 14.4375 35.4104V49.3479C14.4376 50.272 14.8047 51.1581 15.4582 51.8116C16.1116 52.465 16.9978 52.8322 17.9219 52.8323H31.8594C32.7835 52.8322 33.6697 52.465 34.3231 51.8116C34.9765 51.1581 35.3437 50.272 35.3438 49.3479V35.4104C35.3437 34.4863 34.9765 33.6001 34.3231 32.9466C33.6697 32.2932 32.7835 31.9261 31.8594 31.926H17.9219ZM21.4062 38.8948H28.375V45.8635H21.4062V38.8948Z" fill="#65746A" stroke="#A6BCAD" stroke-width="4" mask="url(#path-4-inside-3_0_1)"/>
<mask id="path-5-inside-4_0_1" fill="white">
<path fill-rule="evenodd" clip-rule="evenodd" d="M7.46875 0.56665C3.66834 0.56665 0.5 3.73499 0.5 7.5354V59.801C0.5 63.6014 3.66834 66.7698 7.46875 66.7698H57.4546C60.3389 74.8712 68.0927 80.7073 77.1562 80.7073C88.6612 80.7073 98.0625 71.3059 98.0625 59.801C98.0625 53.6407 95.3644 48.0844 91.0938 44.2506V7.5354C91.0938 3.73499 87.9254 0.56665 84.125 0.56665H7.46875ZM7.46875 7.5354H84.125V14.5042H7.46875V7.5354ZM7.46875 21.4729H84.125V40.0993C83.871 40.0087 83.6143 39.9217 83.356 39.8408C81.3948 39.2279 79.3134 38.8949 77.1562 38.8949C66.0109 38.8949 56.8395 47.7148 56.2772 58.7259C56.2598 59.0811 56.2493 59.4416 56.2493 59.8011H7.46809L7.46875 21.4729ZM42.3125 31.926C41.3884 31.926 40.5021 32.2931 39.8487 32.9465C39.1952 33.6 38.8281 34.4863 38.8281 35.4104C38.8281 36.3345 39.1952 37.2207 39.8487 37.8742C40.5021 38.5276 41.3884 38.8948 42.3125 38.8948H59.7344C60.6585 38.8948 61.5448 38.5276 62.1982 37.8742C62.8517 37.2207 63.2188 36.3345 63.2188 35.4104C63.2188 34.4863 62.8517 33.6 62.1982 32.9465C61.5448 32.2931 60.6585 31.926 59.7344 31.926H42.3125ZM77.1562 45.8635C84.895 45.8635 91.0938 52.0623 91.0938 59.801C91.0938 67.5397 84.895 73.7385 77.1562 73.7385C70.5347 73.7385 65.0413 69.1985 63.593 63.0404C63.5723 62.7319 63.5105 62.4275 63.4094 62.1353C63.399 62.067 63.385 61.9998 63.3746 61.9311C63.3397 61.6998 63.3167 61.4654 63.293 61.2302C63.2456 60.7597 63.2181 60.2847 63.2181 59.801C63.2181 59.5592 63.2251 59.3183 63.239 59.0797C63.2634 58.6023 63.3049 58.134 63.3753 57.6709C63.4105 57.4396 63.4516 57.2111 63.4979 56.9836C64.7902 50.6128 70.3849 45.8635 77.1562 45.8635Z"/>
</mask>
<path fill-rule="evenodd" clip-rule="evenodd" d="M7.46875 0.56665C3.66834 0.56665 0.5 3.73499 0.5 7.5354V59.801C0.5 63.6014 3.66834 66.7698 7.46875 66.7698H57.4546C60.3389 74.8712 68.0927 80.7073 77.1562 80.7073C88.6612 80.7073 98.0625 71.3059 98.0625 59.801C98.0625 53.6407 95.3644 48.0844 91.0938 44.2506V7.5354C91.0938 3.73499 87.9254 0.56665 84.125 0.56665H7.46875ZM7.46875 7.5354H84.125V14.5042H7.46875V7.5354ZM7.46875 21.4729H84.125V40.0993C83.871 40.0087 83.6143 39.9217 83.356 39.8408C81.3948 39.2279 79.3134 38.8949 77.1562 38.8949C66.0109 38.8949 56.8395 47.7148 56.2772 58.7259C56.2598 59.0811 56.2493 59.4416 56.2493 59.8011H7.46809L7.46875 21.4729ZM42.3125 31.926C41.3884 31.926 40.5021 32.2931 39.8487 32.9465C39.1952 33.6 38.8281 34.4863 38.8281 35.4104C38.8281 36.3345 39.1952 37.2207 39.8487 37.8742C40.5021 38.5276 41.3884 38.8948 42.3125 38.8948H59.7344C60.6585 38.8948 61.5448 38.5276 62.1982 37.8742C62.8517 37.2207 63.2188 36.3345 63.2188 35.4104C63.2188 34.4863 62.8517 33.6 62.1982 32.9465C61.5448 32.2931 60.6585 31.926 59.7344 31.926H42.3125ZM77.1562 45.8635C84.895 45.8635 91.0938 52.0623 91.0938 59.801C91.0938 67.5397 84.895 73.7385 77.1562 73.7385C70.5347 73.7385 65.0413 69.1985 63.593 63.0404C63.5723 62.7319 63.5105 62.4275 63.4094 62.1353C63.399 62.067 63.385 61.9998 63.3746 61.9311C63.3397 61.6998 63.3167 61.4654 63.293 61.2302C63.2456 60.7597 63.2181 60.2847 63.2181 59.801C63.2181 59.5592 63.2251 59.3183 63.239 59.0797C63.2634 58.6023 63.3049 58.134 63.3753 57.6709C63.4105 57.4396 63.4516 57.2111 63.4979 56.9836C64.7902 50.6128 70.3849 45.8635 77.1562 45.8635Z" fill="#65746A" stroke="#A6BCAD" stroke-width="4" mask="url(#path-5-inside-4_0_1)"/>
</g>
<defs>
<clipPath id="clip0_0_1">
<rect width="2042" height="5565" fill="white" transform="translate(-1399 -1048)"/>
</clipPath>
</defs>
</svg>
