<svg width="69" height="93" viewBox="0 0 69 93" fill="none" xmlns="http://www.w3.org/2000/svg">
<path d="M63.375 23.7729C59.9789 24.5366 56.7625 25.3793 53.7258 26.2795C46.4484 28.4358 40.1594 31.158 34.7867 33.7635C31.3187 35.4472 30.0789 36.1911 25.5328 38.8361C15.0391 44.8898 8.75 52.7439 8.75 64.4973C8.75 77.778 18.7406 87.0229 34.625 87.0229C50.5094 87.0229 60.5 76.9945 60.5 63.7138C60.5 50.4331 49.5391 41.2457 63.375 23.7729Z" stroke="#65746A" stroke-width="4" stroke-linecap="round" stroke-linejoin="round"/>
<path d="M36.0625 33.1508C32.5245 28.2992 29.1984 26.1987 26.593 24.7791C17.8422 20.0174 5.875 18.0229 5.875 18.0229C13.332 25.8752 12.5594 34.2127 11.625 41.0229C11.625 41.0229 10.9296 46.931 11.9682 51.5184" stroke="#65746A" stroke-width="4" stroke-linecap="round" stroke-linejoin="round"/>
<path d="M55.4688 25.7764C52.6926 19.2088 49 12.2729 49 12.2729C49 12.2729 37.6222 12.2729 24.6182 23.7729" stroke="#65746A" stroke-width="4" stroke-linecap="round" stroke-linejoin="round"/>
<path d="M34.1722 16.5081C28.3809 9.00437 20.25 6.52289 20.25 6.52289C17.5008 10.2604 15.0768 15.7912 13.9843 19.8503" stroke="#65746A" stroke-width="4" stroke-linecap="round" stroke-linejoin="round"/>
</svg>
