<svg width="93" height="93" viewBox="0 0 93 93" fill="none" xmlns="http://www.w3.org/2000/svg">
<path d="M75.25 23.4417C71.8539 24.2053 68.6375 25.0481 65.6008 25.9483C58.3234 28.1045 52.0344 30.8268 46.6617 33.4323C43.1937 35.1159 41.9539 35.8599 37.4078 38.5049C26.9141 44.5585 20.625 52.4127 20.625 64.166C20.625 77.4467 30.6156 86.6917 46.5 86.6917C62.3844 86.6917 72.375 76.6633 72.375 63.3826C72.375 50.1019 61.4141 40.9145 75.25 23.4417Z" stroke="#65746A" stroke-width="4" stroke-linecap="round" stroke-linejoin="round"/>
<path d="M47.9375 32.8195C44.3995 27.968 41.0734 25.8674 38.468 24.4479C29.7172 19.6862 17.75 17.6917 17.75 17.6917C25.207 25.544 24.4344 33.8815 23.5 40.6917C23.5 40.6917 22.8046 46.5998 23.8432 51.1872" stroke="#65746A" stroke-width="4" stroke-linecap="round" stroke-linejoin="round"/>
<path d="M67.3438 25.4452C64.5676 18.8776 60.875 11.9417 60.875 11.9417C60.875 11.9417 49.4972 11.9417 36.4932 23.4417" stroke="#65746A" stroke-width="4" stroke-linecap="round" stroke-linejoin="round"/>
<path d="M46.0472 16.1769C40.2559 8.67314 32.125 6.19165 32.125 6.19165C29.3758 9.92915 26.9518 15.4599 25.8593 19.5191" stroke="#65746A" stroke-width="4" stroke-linecap="round" stroke-linejoin="round"/>
</svg>
